<?xml version="1.0" encoding="iso-8859-1"?>
<!-- Uploaded to: SVG Repo, www.svgrepo.com, Generator: SVG Repo Mixer Tools -->
<svg height="800px" width="800px" version="1.1" id="Layer_1" xmlns="http://www.w3.org/2000/svg" xmlns:xlink="http://www.w3.org/1999/xlink" 
	 viewBox="0 0 415.61 415.61" xml:space="preserve">
<g>
	<path style="fill:#C42727;" d="M305.185,178.5H110.414c-6.691,0-12.114-5.424-12.114-12.114v-45.771
		c0-6.691,5.424-12.114,12.114-12.114h194.771c6.691,0,12.114,5.424,12.114,12.114v45.771
		C317.299,173.076,311.876,178.5,305.185,178.5z"/>
	<path style="fill:#D83935;" d="M325.319,415.61H90.289c0,0,9.716-133.465,25.295-148.246c11.057-10.49,25.068-17.897,40.655-20.844
		c0.66-0.13,1.33-0.24,2-0.35c4.28-0.7,94.85-0.7,99.13,0c0.67,0.11,1.34,0.22,2,0.35c16.309,3.084,30.892,11.049,42.171,22.321
		C316.231,283.521,325.319,415.61,325.319,415.61z"/>
	<path style="fill:#F2F2F2;" d="M257.369,246.17v6.03c0,13.25-5.15,25.69-14.52,35.05c-9.36,9.35-21.81,14.51-35.05,14.51
		c-27.33,0-49.56-22.23-49.56-49.56v-6.03c4.28-0.7,8.69-1.07,13.17-1.07h72.79C248.679,245.1,253.089,245.47,257.369,246.17z"/>
	<path style="fill:#A67C52;" d="M251.371,222.43v29.77c0,12.02-4.87,22.92-12.76,30.8c-7.88,7.88-18.78,12.76-30.81,12.76
		c-24.06,0-43.56-19.5-43.56-43.56v-29.77L251.371,222.43L251.371,222.43z"/>
	<path style="fill:#91663F;" d="M251.371,222.43v24.06c-12.86,7.29-27.73,11.45-43.57,11.45s-30.7-4.16-43.56-11.45v-24.06
		L251.371,222.43L251.371,222.43z"/>
	<path style="fill:#A67C52;" d="M257.159,227.58c-14.1,9.49-31.08,15.03-49.36,15.03s-35.26-5.54-49.36-15.03
		c-0.19-0.13-0.39-0.26-0.58-0.4c-23.28-15.94-38.56-42.72-38.56-73.07v-22.5V95.5c0-48.877,39.623-88.5,88.5-88.5l0,0
		c48.877,0,88.5,39.623,88.5,88.5v36.11v22.5c0,30.35-15.28,57.13-38.56,73.07C257.549,227.32,257.349,227.45,257.159,227.58z"/>
	<g>
		<path style="fill:#91663F;" d="M160.669,130.943h35.044c6.522,0,11.81,5.287,11.81,11.81v21.123c0,5.092,4.128,9.22,9.22,9.22
			h6.748l-2.943,1.044c-7.666,2.72-16.214,0.773-21.946-4.999L160.669,130.943z"/>
	</g>
	<g>
		<path style="fill:#333333;" d="M173.799,152.046c-1.58,0-3.13-0.64-4.24-1.75c-1.12-1.12-1.76-2.67-1.76-4.25s0.64-3.12,1.76-4.24
			c1.39-1.39,3.46-2.03,5.41-1.64c0.39,0.08,0.76,0.19,1.13,0.34c0.36,0.15,0.71,0.34,1.03,0.55c0.33,0.22,0.64,0.47,0.91,0.75
			c0.28,0.28,0.53,0.58,0.75,0.91s0.4,0.68,0.55,1.04c0.15,0.36,0.27,0.74,0.34,1.12c0.08,0.39,0.12,0.78,0.12,1.17
			s-0.04,0.79-0.12,1.18c-0.07,0.38-0.19,0.76-0.34,1.12s-0.33,0.71-0.55,1.03c-0.22,0.33-0.47,0.64-0.75,0.92
			C176.929,151.407,175.379,152.046,173.799,152.046z"/>
		<path style="fill:#333333;" d="M241.799,152.046c-0.39,0-0.79-0.04-1.17-0.11c-0.38-0.08-0.76-0.2-1.12-0.35
			c-0.37-0.15-0.71-0.33-1.04-0.55c-0.33-0.22-0.64-0.47-0.91-0.74c-0.28-0.28-0.53-0.59-0.75-0.92c-0.22-0.32-0.4-0.67-0.55-1.03
			c-0.15-0.36-0.27-0.74-0.34-1.12c-0.08-0.39-0.12-0.79-0.12-1.18s0.04-0.78,0.12-1.17c0.07-0.38,0.19-0.76,0.34-1.12
			s0.33-0.71,0.55-1.04c0.22-0.33,0.47-0.63,0.75-0.91c0.27-0.28,0.58-0.53,0.91-0.75c0.33-0.21,0.67-0.4,1.04-0.55
			c0.36-0.15,0.74-0.26,1.12-0.34c1.95-0.39,4.02,0.25,5.41,1.64c0.28,0.28,0.53,0.58,0.75,0.91s0.4,0.68,0.55,1.04
			c0.15,0.36,0.27,0.74,0.34,1.12c0.08,0.39,0.12,0.78,0.12,1.17s-0.04,0.79-0.12,1.18c-0.07,0.38-0.19,0.76-0.34,1.12
			s-0.33,0.71-0.55,1.03c-0.22,0.33-0.47,0.64-0.75,0.92C244.929,151.407,243.379,152.046,241.799,152.046z"/>
	</g>
	<g>
		<path style="fill:#333333;" d="M184.737,133.943h-21.875c-3.087,0-5.59-2.503-5.59-5.59l0,0c0-3.087,2.503-5.59,5.59-5.59h21.875
			c3.087,0,5.59,2.503,5.59,5.59l0,0C190.327,131.441,187.824,133.943,184.737,133.943z"/>
		<path style="fill:#333333;" d="M252.737,133.943h-21.875c-3.087,0-5.59-2.503-5.59-5.59l0,0c0-3.087,2.503-5.59,5.59-5.59h21.875
			c3.087,0,5.59,2.503,5.59,5.59l0,0C258.327,131.441,255.824,133.943,252.737,133.943z"/>
	</g>
	<path style="fill:#FFFFFF;" d="M233.034,185.607c0,2.98-0.52,5.83-1.48,8.49c-0.45,1.28-1.01,2.51-1.65,3.68
		c-4.3,7.78-12.58,13.05-22.1,13.05c-9.53,0-17.81-5.27-22.11-13.05c-0.65-1.17-1.21-2.4-1.66-3.68c-0.96-2.66-1.47-5.51-1.47-8.49
		H233.034z"/>
	<path style="fill:#333333;" d="M231.559,194.097c-0.45,1.28-1.01,2.51-1.65,3.68c-4.3,7.78-12.58,13.05-22.1,13.05
		c-9.53,0-17.81-5.27-22.11-13.05c-0.65-1.17-1.21-2.4-1.66-3.68H231.559z"/>
	<path style="fill:#D83935;" d="M231.76,0h-47.922c-6.097,0-11.039,4.942-11.039,11.039V49.5h70V11.039
		C242.799,4.942,237.857,0,231.76,0z"/>
	<g>
		<path style="fill:#A67C52;" d="M130.791,255.997v159.61h-40.5v-89.39C90.291,296.217,106.581,270.017,130.791,255.997z"/>
		<path style="fill:#A67C52;" d="M325.321,326.217v89.39h-40.5v-159.62C309.031,270.017,325.321,296.217,325.321,326.217z"/>
	</g>
	<path style="fill:#D83935;" d="M284.713,37.5H130.885c-10.127,0-18.336,8.209-18.336,18.336V62v42v78.892
		c0,15.369,12.459,27.828,27.828,27.828h7.722h4.455c6.4,0,11.589-5.188,11.589-11.589v-13.39c0-5.396-2.921-10.37-7.635-12.998l0,0
		c-5.191-2.894-8.408-8.371-8.408-14.315v-35.423c0-10.496,8.509-19.005,19.005-19.005h81.39c10.496,0,19.005,8.509,19.005,19.005
		v35.423c0,5.943-3.217,11.421-8.408,14.315l0,0c-4.713,2.628-7.635,7.602-7.635,12.998v13.39c0,6.4,5.188,11.589,11.589,11.589
		h4.455h7.722c15.369,0,27.828-12.459,27.828-27.828V104V62v-6.164C303.049,45.709,294.84,37.5,284.713,37.5z"/>
	<ellipse style="fill:#C42727;" cx="207.799" cy="75" rx="22.941" ry="12"/>
</g>
</svg>