<?xml version="1.0" encoding="iso-8859-1"?>
<!-- Uploaded to: SVG Repo, www.svgrepo.com, Generator: SVG Repo Mixer Tools -->
<svg height="800px" width="800px" version="1.1" id="Layer_1" xmlns="http://www.w3.org/2000/svg" xmlns:xlink="http://www.w3.org/1999/xlink" 
	 viewBox="0 0 512 512" xml:space="preserve">
<g>
	<path style="fill:#F0C419;" d="M256,512C114.847,512,0,397.153,0,256S114.847,0,256,0s256,114.847,256,256S397.153,512,256,512"/>
	<path style="fill:#B5901A;" d="M467.862,256c0-117.01-94.852-211.862-211.862-211.862S44.138,138.99,44.138,256
		S138.99,467.862,256,467.862S467.862,373.01,467.862,256"/>
	<path style="fill:#F0C419;" d="M414.897,256c0-87.755-71.142-158.897-158.897-158.897S97.103,168.245,97.103,256
		S168.245,414.897,256,414.897S414.897,343.755,414.897,256"/>
	<g>
		<path style="fill:#B5901A;" d="M256,370.759c-4.882,0-8.828-3.946-8.828-8.828V150.069c0-4.882,3.946-8.828,8.828-8.828
			s8.828,3.946,8.828,8.828v211.862C264.828,366.813,260.882,370.759,256,370.759"/>
		<path style="fill:#B5901A;" d="M256,353.103c-21.813,0-40.413-7.645-51.041-20.983c-3.037-3.814-2.419-9.366,1.404-12.403
			c3.814-3.046,9.375-2.41,12.403,1.404c7.15,8.978,21.071,14.327,37.235,14.327c21.221,0,44.138-13.497,44.138-35.31
			c0-21.124-22.819-35.31-44.138-35.31c-29.714,0-61.793-20.25-61.793-52.966s32.079-52.966,61.793-52.966
			c22.131,0,40.263,7.45,51.041,20.983c3.037,3.814,2.419,9.366-1.404,12.403c-3.805,3.046-9.366,2.41-12.403-1.404
			c-7.362-9.242-20.586-14.327-37.235-14.327c-21.319,0-44.138,14.186-44.138,35.31c0,21.813,22.916,35.31,44.138,35.31
			c29.714,0,61.793,20.251,61.793,52.966S285.714,353.103,256,353.103"/>
		<path style="fill:#B5901A;" d="M300.138,220.69c-4.882,0-8.828-3.946-8.828-8.828v-52.966c0-4.882,3.946-8.828,8.828-8.828
			c4.882,0,8.828,3.946,8.828,8.828v52.966C308.966,216.744,305.02,220.69,300.138,220.69"/>
		<path style="fill:#B5901A;" d="M211.862,361.931c-4.882,0-8.828-3.946-8.828-8.828v-52.966c0-4.882,3.946-8.828,8.828-8.828
			c4.882,0,8.828,3.946,8.828,8.828v52.966C220.69,357.985,216.744,361.931,211.862,361.931"/>
		<path style="fill:#B5901A;" d="M256,0c-2.966,0-5.888,0.124-8.828,0.221v43.917c0,4.882,3.946,8.828,8.828,8.828
			s8.828-3.946,8.828-8.828V0.221C261.888,0.124,258.966,0,256,0"/>
		<path style="fill:#B5901A;" d="M430.543,68.974l-30.711,30.711c-3.452,3.452-3.452,9.039,0,12.491
			c1.721,1.721,3.981,2.586,6.241,2.586c2.251,0,4.511-0.865,6.241-2.586l30.711-30.72
			C439.009,77.158,434.842,72.991,430.543,68.974"/>
		<path style="fill:#B5901A;" d="M459.034,256c0,4.882,3.946,8.828,8.828,8.828h43.917c0.097-2.94,0.221-5.87,0.221-8.828
			c0-2.957-0.124-5.888-0.221-8.828h-43.917C462.98,247.172,459.034,251.118,459.034,256"/>
		<path style="fill:#B5901A;" d="M412.31,399.828c-3.452-3.452-9.031-3.452-12.482,0s-3.452,9.031,0,12.482l30.711,30.72
			c4.308-4.025,8.466-8.183,12.482-12.491L412.31,399.828z"/>
		<path style="fill:#B5901A;" d="M256,459.034c-4.882,0-8.828,3.946-8.828,8.828v43.917c2.94,0.097,5.862,0.221,8.828,0.221
			c2.966,0,5.888-0.124,8.828-0.221v-43.917C264.828,462.98,260.882,459.034,256,459.034"/>
		<path style="fill:#B5901A;" d="M99.69,399.828l-30.711,30.711c4.017,4.308,8.174,8.466,12.482,12.491l30.711-30.72
			c3.452-3.452,3.452-9.031,0-12.482S103.142,396.376,99.69,399.828"/>
		<path style="fill:#B5901A;" d="M0.224,264.828h43.917c4.873,0,8.828-3.946,8.828-8.828s-3.955-8.828-8.828-8.828H0.224
			c-0.106,2.94-0.221,5.87-0.221,8.828C0.004,258.957,0.118,261.888,0.224,264.828"/>
		<path style="fill:#B5901A;" d="M68.974,81.457l30.711,30.711c1.73,1.73,3.99,2.586,6.25,2.586c2.251,0,4.511-0.856,6.241-2.586
			c3.443-3.443,3.443-9.031,0-12.482l-30.72-30.711C77.158,72.991,72.991,77.158,68.974,81.457"/>
	</g>
</g>
</svg>