<?xml version="1.0" encoding="iso-8859-1"?>
<!-- Uploaded to: SVG Repo, www.svgrepo.com, Generator: SVG Repo Mixer Tools -->
<svg version="1.1" id="Layer_1" xmlns="http://www.w3.org/2000/svg" xmlns:xlink="http://www.w3.org/1999/xlink" 
	 viewBox="0 0 512 512" xml:space="preserve">
<path style="fill:#333E48;" d="M19.965,444.837v67.162h472.07v-67.162h-0.002c0-35.355-28.662-64.018-64.019-64.018H83.983
	C48.627,380.82,19.965,409.482,19.965,444.837z"/>
<path style="opacity:0.2;enable-background:new    ;" d="M117.155,466.538c-4.59,0-8.309,3.72-8.309,8.309V512h16.617v-37.153
	C125.464,470.258,121.745,466.538,117.155,466.538z M394.843,466.538c-4.59,0-8.309,3.72-8.309,8.309V512h16.617v-37.153
	C403.152,470.258,399.433,466.538,394.843,466.538z"/>
<path style="fill:#6CC04A;" d="M177.112,380.82V247.782h157.775V380.82c0,43.569-35.319,78.888-78.888,78.888
	S177.112,424.388,177.112,380.82z"/>
<path style="opacity:0.2;enable-background:new    ;" d="M177.112,380.82V247.782h157.775V380.82
	c0,43.569-35.319,78.888-78.888,78.888S177.112,424.388,177.112,380.82z"/>
<g>
	<circle style="fill:#A4D78A;" cx="105.241" cy="164.265" r="44.7"/>
	<circle style="fill:#A4D78A;" cx="406.762" cy="164.265" r="44.7"/>
</g>
<path style="fill:#6CC04A;" d="M105.242,247.118c0,36.669,29.726,66.395,66.395,66.395h168.726
	c36.669,0,66.396-29.726,66.396-66.395h-0.002V56.148c0-24.705-20.213-44.918-44.918-44.918H150.16
	c-24.705,0-44.917,20.213-44.917,44.918v190.97H105.242z"/>
<path style="opacity:0.3;enable-background:new    ;" d="M255.999,187.33c-9.923,0-17.967-8.045-17.967-17.967v-13.032
	c0-9.924,8.045-17.967,17.967-17.967s17.967,8.044,17.967,17.967v13.032C273.967,179.285,265.922,187.33,255.999,187.33z"/>
<path style="fill:#FFFFFF;" d="M199.667,139.634h-52.8c-1.235,3.179-1.923,6.631-1.923,10.247c0,15.641,12.682,28.321,28.323,28.321
	s28.322-12.68,28.322-28.321C201.589,146.265,200.901,142.813,199.667,139.634z"/>
<path style="fill:#333E48;" d="M183.514,149.883c0-5.662-4.59-10.249-10.248-10.249c-5.658,0-10.246,4.586-10.246,10.249
	c0,5.656,4.589,10.244,10.246,10.244C178.924,160.127,183.514,155.54,183.514,149.883z"/>
<path style="fill:#FFFFFF;" d="M365.133,139.634h-52.8c-1.234,3.179-1.922,6.631-1.922,10.247c0,15.641,12.682,28.321,28.323,28.321
	c15.641,0,28.322-12.68,28.322-28.321C367.056,146.265,366.369,142.813,365.133,139.634z"/>
<g>
	<path style="fill:#333E48;" d="M328.486,149.883c0-5.662,4.59-10.249,10.248-10.249c5.658,0,10.246,4.586,10.246,10.249
		c0,5.656-4.589,10.244-10.246,10.244C333.076,160.127,328.486,155.54,328.486,149.883z"/>
	<rect x="365.962" y="329.604" style="fill:#333E48;" width="16.617" height="35.116"/>
	<rect x="334.888" y="338.854" style="fill:#333E48;" width="39.379" height="16.617"/>
	<rect x="129.424" y="329.604" style="fill:#333E48;" width="16.617" height="35.116"/>
	<rect x="137.733" y="338.854" style="fill:#333E48;" width="39.378" height="16.617"/>
</g>
<g style="opacity:0.3;">
	<path d="M335.236,225.92c0-9.265-7.581-16.844-16.844-16.844H193.604c-9.263,0-16.844,7.58-16.844,16.844v23.023
		c0,9.265,7.581,16.844,16.844,16.844h124.788c9.263,0,16.844-7.58,16.844-16.844L335.236,225.92L335.236,225.92z"/>
</g>
<g style="opacity:0.2;">
	<path d="M371.549,102.603H266.741c-4.59,0-8.309-3.72-8.309-8.309s3.719-8.309,8.309-8.309h104.808c4.59,0,8.309,3.72,8.309,8.309
		S376.138,102.603,371.549,102.603z"/>
	<path d="M286.954,121.32c-4.59,0-8.309-3.72-8.309-8.309V75.58c0-4.589,3.719-8.309,8.309-8.309s8.309,3.72,8.309,8.309v37.431
		C295.262,117.6,291.542,121.32,286.954,121.32z"/>
	<path d="M326.765,121.32c-4.59,0-8.309-3.72-8.309-8.309V75.58c0-4.589,3.719-8.309,8.309-8.309c4.59,0,8.309,3.72,8.309,8.309
		v37.431C335.073,117.6,331.354,121.32,326.765,121.32z"/>
</g>
<path style="fill:#FFFFFF;" d="M176.76,234.064v-8.142c0-9.265,7.581-16.844,16.844-16.844h124.788
	c9.263,0,16.844,7.58,16.844,16.844v8.142H176.76z"/>
<rect x="247.693" y="209.075" style="opacity:0.1;enable-background:new    ;" width="16.617" height="24.988"/>
<rect x="202.584" y="209.075" style="opacity:0.1;enable-background:new    ;" width="16.617" height="24.988"/>
<rect x="292.792" y="209.075" style="opacity:0.1;enable-background:new    ;" width="16.617" height="24.988"/>
<path style="fill:#333E48;" d="M361.839,0H150.16c-30.959,0-56.147,25.187-56.147,56.148c0,0,67.707,0,70.607,0
	c2.9,0,4.06-2.484,4.06-2.484l7.513-15.026c3.11-6.217,8.194-6.217,11.304,0l7.51,15.021c0,0,1.055,2.49,4.986,2.49
	c3.508,0,217.991,0,217.991,0C417.985,25.187,392.798,0,361.839,0z"/>
</svg>