<svg xmlns="http://www.w3.org/2000/svg" viewBox="0 0 64 64"><g data-name="09-tree"><path d="M27.48 38.34A6.331 6.331 0 0 0 23 36c-3 0-4-1-4-2v-7.13a3.679 3.679 0 0 0 2.01-.02c0 .05-.01.1-.01.15a4.941 4.941 0 0 0 1 3v3s5 0 6 3a3.415 3.415 0 0 0 2.41 1H31v5.99c-.79-.62-1.51-1.16-2.06-1.52a2.081 2.081 0 0 1-.94-1.74 2.067 2.067 0 0 0-.52-1.39z" style="fill:#845335"/><path d="m41 63-8.25-.92a6.839 6.839 0 0 0-1.5.01L24 63l3.5-2.8a4 4 0 0 0 1.5-3.12V52l8 7zM37 50v5c0-3-6-7-6-8v-4.01c2.63 2.06 6 5.01 6 5.01z" style="fill:#a56645"/><path d="M37 55v4l-8-7v-.79a3.993 3.993 0 0 1 .67-2.22L31 47c0 1 6 5 6 8zM37 45v3s-3.37-2.95-6-5.01V39s6 3 6 6z" style="fill:#af7a58"/><path d="M38 36h4a2.006 2.006 0 0 0 2-2v-2a5.01 5.01 0 0 0 2-4 5.9 5.9 0 0 0-.06-.59 5.314 5.314 0 0 0 1.06.77V35c0 1.33-1.33 2.67-2.22 3.41a2.6 2.6 0 0 1-1.67.59h-3.33A2.787 2.787 0 0 0 37 41.78V45c0-3-6-6-6-6v-3l-2-5v-.01a5.163 5.163 0 0 0 1.52-1.88A3.934 3.934 0 0 0 33 30a3.991 3.991 0 0 0 3.06-1.45c.02.16.04.31.07.46H36V36h2z" style="fill:#a56645"/><path d="M19 26.87a3.947 3.947 0 0 1-1.2-.54 4.989 4.989 0 1 1-5.22-6.29A3.943 3.943 0 0 1 12 18a4 4 0 0 1 4-4h.02A4.98 4.98 0 0 1 23 7.02V7a4 4 0 0 1 4-4 3.934 3.934 0 0 1 2.48.89 4.984 4.984 0 0 1 9.43 1.22 4.009 4.009 0 0 1 2.85 2.58A3.932 3.932 0 0 1 44 7a4 4 0 0 1 4 4 3.941 3.941 0 0 1-.17 1.09A4 4 0 0 1 51 16a4.26 4.26 0 0 1-.16 1.07A5.994 5.994 0 0 1 50 29a5.865 5.865 0 0 1-3-.82 5.314 5.314 0 0 1-1.06-.77A5.9 5.9 0 0 1 46 28a5.01 5.01 0 0 1-2 4 4.977 4.977 0 0 1-7.87-2.99c-.03-.15-.05-.3-.07-.46A3.991 3.991 0 0 1 33 30a3.934 3.934 0 0 1-2.48-.89A5.163 5.163 0 0 1 29 30.99a4.984 4.984 0 0 1-7-.99 4.941 4.941 0 0 1-1-3c0-.05.01-.1.01-.15a3.679 3.679 0 0 1-2.01.02z" style="fill:#8bba47"/><path d="M53.946 18.509A5.967 5.967 0 0 1 50 20a5.865 5.865 0 0 1-3-.82 5.314 5.314 0 0 1-1.06-.77A5.9 5.9 0 0 1 46 19a5.01 5.01 0 0 1-2 4 4.977 4.977 0 0 1-7.87-2.99c-.03-.15-.05-.3-.07-.46A3.991 3.991 0 0 1 33 21a3.934 3.934 0 0 1-2.48-.89A5.163 5.163 0 0 1 29 21.99a4.984 4.984 0 0 1-7-.99 4.941 4.941 0 0 1-1-3c0-.05.01-.1.01-.15a3.679 3.679 0 0 1-2.01.02 3.947 3.947 0 0 1-1.2-.54 4.945 4.945 0 0 1-6.93 3.177 4.984 4.984 0 1 0 6.93 5.823 3.947 3.947 0 0 0 1.2.54 3.679 3.679 0 0 0 2.01-.02c0 .05-.01.1-.01.15a4.941 4.941 0 0 0 1 3 4.984 4.984 0 0 0 7 .99 5.163 5.163 0 0 0 1.52-1.88A3.934 3.934 0 0 0 33 30a3.991 3.991 0 0 0 3.06-1.45c.02.16.04.31.07.46A4.986 4.986 0 0 0 46 28a5.9 5.9 0 0 0-.06-.59 5.314 5.314 0 0 0 1.06.77 5.865 5.865 0 0 0 3 .82 5.98 5.98 0 0 0 3.946-10.491z" style="fill:#5d802b"/><path d="M17.8 17.33a3.947 3.947 0 0 0 1.2.54 3.679 3.679 0 0 0 2.01-.02c0 .05-.01.1-.01.15a4.941 4.941 0 0 0 1 3 4.984 4.984 0 0 0 7 .99 5.163 5.163 0 0 0 1.52-1.88A3.934 3.934 0 0 0 33 21a3.991 3.991 0 0 0 3.06-1.45c.02.16.04.31.07.46A4.986 4.986 0 0 0 46 19a5.9 5.9 0 0 0-.06-.59 5.314 5.314 0 0 0 1.06.77 5.865 5.865 0 0 0 3 .82 5.967 5.967 0 0 0 3.946-1.491 5.931 5.931 0 0 0-3.106-1.439A4.26 4.26 0 0 0 51 16a3.987 3.987 0 0 0-1.788-3.318 4.522 4.522 0 0 1-3.587 1.693 4.648 4.648 0 0 1-2.188-.538 3.92 3.92 0 0 1-.772-.5 3.606 3.606 0 0 1 .043.387 3.192 3.192 0 0 1-1.458 2.625 3.876 3.876 0 0 1-2.188.651 3.548 3.548 0 0 1-3.551-2.618c-.021-.1-.036-.2-.051-.3a3.092 3.092 0 0 1-4.039.367 3.482 3.482 0 0 1-1.109 1.234 3.911 3.911 0 0 1-2.187.663 3.8 3.8 0 0 1-2.917-1.313 3.037 3.037 0 0 1-.729-1.969c0-.032.007-.065.007-.1a2.979 2.979 0 0 1-1.465.013 3.039 3.039 0 0 1-.875-.354 3.6 3.6 0 0 1-3.5 2.408A3.825 3.825 0 0 1 16 14a4 4 0 0 0-4 4 3.943 3.943 0 0 0 .58 2.04 5.017 5.017 0 0 0-1.71.467 4.945 4.945 0 0 0 6.93-3.177z" style="fill:#6c9137"/><path d="M20 9a4.98 4.98 0 0 1 3 1.02V10a4 4 0 0 1 4-4 3.934 3.934 0 0 1 2.48.89 4.984 4.984 0 0 1 9.43 1.22 4.009 4.009 0 0 1 2.85 2.58A3.932 3.932 0 0 1 44 10a4 4 0 0 1 4 4 3.941 3.941 0 0 1-.17 1.09A4 4 0 0 1 51 19a4.26 4.26 0 0 1-.16 1.07 5.976 5.976 0 0 1 4.96 4.46 5.964 5.964 0 0 0-4.955-7.46A4.26 4.26 0 0 0 51 16a4 4 0 0 0-3.17-3.91A3.941 3.941 0 0 0 48 11a4 4 0 0 0-4-4 3.932 3.932 0 0 0-2.24.69 4.009 4.009 0 0 0-2.85-2.58 4.984 4.984 0 0 0-9.43-1.22A3.934 3.934 0 0 0 27 3a4 4 0 0 0-4 4v.02A4.98 4.98 0 0 0 15 11a4.842 4.842 0 0 0 .25 1.516A4.984 4.984 0 0 1 20 9z" style="fill:#acd949"/><path d="M30.41 37A3.415 3.415 0 0 1 28 36c-1-3-6-3-6-3v-3a4.941 4.941 0 0 1-1-3c0-.05.01-.1.01-.15a3.679 3.679 0 0 1-2.01.02V30a2 2 0 0 1 2 2v1.083a1 1 0 0 0 .9.994c1.3.129 3.6.422 4.1.923l2.121 2.121A3 3 0 0 1 29 39.243v2.268c.542.359 1.237.88 2 1.479V37zM37 37h5a3 3 0 0 0 3-3v-.558a2 2 0 0 1 1.368-1.9l.632-.209V28.18a5.314 5.314 0 0 1-1.06-.77A5.9 5.9 0 0 1 46 28a5.01 5.01 0 0 1-2 4v2a2.006 2.006 0 0 1-2 2h-6a1 1 0 0 0 1 1z" style="fill:#5e3117"/><path d="M32 54.721v-.1L29 52v5.08a4 4 0 0 1-1.5 3.12L24 63l7.25-.91a6.839 6.839 0 0 1 1.5-.01L41 63l-4-4-1.784-.357A4 4 0 0 1 32 54.721zM33.091 49.364l.237-.356A4 4 0 0 0 34 46.789v-1.354a120.935 120.935 0 0 0-3-2.445V47c0 .4.949 1.271 2.091 2.364z" style="fill:#6f3529"/><path d="M32 52.211a4 4 0 0 1 .672-2.219l.419-.628C31.949 48.271 31 47.4 31 47l-1.33 1.99a3.993 3.993 0 0 0-.67 2.22V52l3 2.625zM34 40.875A22.163 22.163 0 0 0 31 39v3.99c.968.758 2.036 1.637 3 2.445z" style="fill:#92563a"/><path d="M34 36.944a4.012 4.012 0 0 0-.422-1.789l-.329-.657a2 2 0 0 1 1.372-2.849c.512-.114.987-.239 1.379-.348V29.01h.13c-.03-.15-.05-.3-.07-.46A3.991 3.991 0 0 1 33 30a3.934 3.934 0 0 1-2.48-.89A5.163 5.163 0 0 1 29 30.99V31l2 5v3a22.163 22.163 0 0 1 3 1.875zM38 36h1.487a2.351 2.351 0 0 0 .626-.406l1.241-1.24a.5.5 0 0 0-.708-.708l-1.24 1.241a4.594 4.594 0 0 1-1.486.613.5.5 0 0 0-.5.5H38z" style="fill:#5e3117"/><path d="M50.416 32.723a.5.5 0 0 0-.693-.139L47 34.4v.6a2.184 2.184 0 0 1-.06.5H47a.5.5 0 0 0 .277-.084l3-2a.5.5 0 0 0 .139-.693z" style="fill:#a56645"/><path d="M37 48.5v-1.207l-.024.023c-.936-.811-3.553-3.064-5.668-4.719a.5.5 0 0 0-.212-.1l-.1-.019v1.147c2.539 2.01 5.639 4.72 5.671 4.748A.5.5 0 0 0 37 48.5zM32.478 49.469C34.08 51 36.5 53.312 36.5 55a.5.5 0 0 0 .243.429l.257.154v-2.355a19.428 19.428 0 0 0-3.832-4.482A12.644 12.644 0 0 1 31.5 47a.5.5 0 0 0-.342-.474L31 46.473V47l-.336.5a10.843 10.843 0 0 0 1.814 1.969zM37 59v-.664l-7.671-6.712a.489.489 0 0 0-.231-.114l-.1-.02v1.175l7.671 6.711A.5.5 0 0 0 37 59.5a.48.48 0 0 0 .158-.026l.242-.074z" style="fill:#93b861"/><path d="M37 50.5a.5.5 0 0 0 .224-.053l4-2A.5.5 0 0 0 41.5 48v-3a.5.5 0 0 0-1 0v2.691l-3.5 1.75V50.5z" style="fill:#a56645"/><path d="M31.158 38.526 31 38.473v1.09c1.72.9 5.5 3.327 5.5 5.437a.5.5 0 0 0 .4.49l.1.02v-2.2c-1.445-2.561-5.576-4.656-5.842-4.784z" style="fill:#93b861"/><path d="m31.1 42.5-.1-.019v1.147c.987.781 2.057 1.667 3 2.461v-1.3a113.38 113.38 0 0 0-2.692-2.187.5.5 0 0 0-.208-.102zM31.5 47a.5.5 0 0 0-.342-.474L31 46.473V47l-.336.5a10.843 10.843 0 0 0 1.814 1.966l.331.318.282-.423.237-.356c.015-.023.025-.048.04-.071l-.2-.191A12.644 12.644 0 0 1 31.5 47zM32 54.625v-.664l-2.671-2.337a.489.489 0 0 0-.231-.114l-.1-.02v1.175l3.054 2.672a4.053 4.053 0 0 1-.052-.616zM37 59l-.984-.2.655.573A.5.5 0 0 0 37 59.5a.48.48 0 0 0 .158-.026l.242-.074zM31 38.473v1.09a20.558 20.558 0 0 1 3 1.945v-1.244a21.821 21.821 0 0 0-2.842-1.738z" style="fill:#6c9137"/><path d="M47.93 20.03c1.73.15 3.07 1.19 3.07 2.47 0 1.38-1.57 2.5-3.5 2.5a3.938 3.938 0 0 1-2.96-1.18A3.157 3.157 0 0 1 42 25a2.783 2.783 0 0 1-3-2.5 2.783 2.783 0 0 1 3-2.5.127.127 0 0 1 .06.01 2.22 2.22 0 0 1-.06-.51 2.783 2.783 0 0 1 3-2.5 2.783 2.783 0 0 1 3 2.5 2.333 2.333 0 0 1-.07.53zM23 17c2.21 0 4 1.12 4 2.5S25.21 22 23 22a5.869 5.869 0 0 1-2.07-.37A3 3 0 1 1 18 18a2.6 2.6 0 0 1 .56.06A2.459 2.459 0 0 1 18 16.5a2.5 2.5 0 0 1 5 0 2.734 2.734 0 0 1-.05.5z" style="fill:#8dae43"/><path d="M42 22a.127.127 0 0 1 .06.01 2.22 2.22 0 0 1-.06-.51 2.783 2.783 0 0 1 3-2.5 2.783 2.783 0 0 1 3 2.5 2.333 2.333 0 0 1-.07.53 3.573 3.573 0 0 1 2.77 1.475 1.9 1.9 0 0 0 .3-1c0-1.28-1.34-2.32-3.07-2.47A2.333 2.333 0 0 0 48 19.5a2.783 2.783 0 0 0-3-2.5 2.783 2.783 0 0 0-3 2.5 2.22 2.22 0 0 0 .06.51A.127.127 0 0 0 42 20a2.783 2.783 0 0 0-3 2.5 2.141 2.141 0 0 0 .253 1A3.063 3.063 0 0 1 42 22zM23 17h-.05a2.734 2.734 0 0 0 .05-.5 2.5 2.5 0 0 0-5 0 2.423 2.423 0 0 0 .218.988A2.5 2.5 0 0 1 23 18.5a2.734 2.734 0 0 1-.05.5H23a4.509 4.509 0 0 1 3.662 1.5 1.734 1.734 0 0 0 .338-1c0-1.38-1.79-2.5-4-2.5z" style="fill:#acd949"/><path d="M47.5 25a3.938 3.938 0 0 1-2.96-1.18A3.157 3.157 0 0 1 42 25a3.063 3.063 0 0 1-2.747-1.5 2.141 2.141 0 0 0-.253 1 2.783 2.783 0 0 0 3 2.5 3.157 3.157 0 0 0 2.54-1.18A3.938 3.938 0 0 0 47.5 27c1.93 0 3.5-1.12 3.5-2.5a1.885 1.885 0 0 0-.3-1 3.742 3.742 0 0 1-3.2 1.5zM23 22a5.869 5.869 0 0 1-2.07-.37 2.99 2.99 0 0 1-5.747.37 2.993 2.993 0 1 0 5.747 1.63A5.869 5.869 0 0 0 23 24c2.21 0 4-1.12 4-2.5a1.734 1.734 0 0 0-.338-1A4.509 4.509 0 0 1 23 22z" style="fill:#527026"/></g></svg>